<?xml version="1.0" encoding="utf-8"?>
<!-- Generator: Adobe Illustrator 16.0.0, SVG Export Plug-In . SVG Version: 6.00 Build 0)  -->
<!DOCTYPE svg PUBLIC "-//W3C//DTD SVG 1.1//EN" "http://www.w3.org/Graphics/SVG/1.1/DTD/svg11.dtd">
<svg version="1.1" id="Layer_1" xmlns="http://www.w3.org/2000/svg" xmlns:xlink="http://www.w3.org/1999/xlink" x="0px" y="0px"
	 width="48px" height="48px" viewBox="0 0 48 48" enable-background="new 0 0 48 48" xml:space="preserve">
<path id="clipboard-5-icon_1_" fill="#FFFFFF" d="M37.678,3.692c-1.039,0-2.061-0.42-2.82-1.161L32.314,0h-16.65l-2.542,2.532
	c-0.74,0.741-1.761,1.161-2.822,1.161H3.437V48h41.125V3.692H37.678z M39.84,43.277H8.04V8.335h7.265l2.902,2.912h11.788
	l2.941-2.912h6.904V43.277z M11.982,20.843l1.041-0.971c1.241,0.59,2.001,1.041,3.382,2.021c2.602-2.942,4.323-4.433,7.485-6.414
	l0.36,0.791c-2.642,2.292-4.563,4.843-7.325,9.806C15.225,24.065,14.084,22.785,11.982,20.843z M11.982,33.301l1.041-0.971
	c1.241,0.591,2.001,1.051,3.382,2.031c2.602-2.941,4.323-4.433,7.485-6.414l0.36,0.791c-2.642,2.291-4.563,4.833-7.325,9.796
	C15.225,36.533,14.084,35.242,11.982,33.301z M35.816,19.863h-8.145v-2.332h8.145V19.863z M35.816,21.904h-8.145v2.332h8.145V21.904
	z M35.816,33.451h-8.145V31.13h8.145V33.451z M35.816,35.492h-8.145v2.332h8.145V35.492z"/>
</svg>
