<?xml version="1.0" encoding="utf-8"?>
<!-- Generator: Adobe Illustrator 16.0.0, SVG Export Plug-In . SVG Version: 6.00 Build 0)  -->
<!DOCTYPE svg PUBLIC "-//W3C//DTD SVG 1.1//EN" "http://www.w3.org/Graphics/SVG/1.1/DTD/svg11.dtd">
<svg version="1.1" id="Layer_1" xmlns="http://www.w3.org/2000/svg" xmlns:xlink="http://www.w3.org/1999/xlink" x="0px" y="0px"
	 width="48px" height="48px" viewBox="0 0 48 48" enable-background="new 0 0 48 48" xml:space="preserve">
<path id="book-20-icon" fill="#FFFFFF" d="M4.113,28.12C3.98,28.656,4.7,28.994,4.935,28.421c0.279-0.69,0.749-3.635,1.146-6.602
	c0.221-1.587,2.335-1.389,2.335,0.249c-0.015,2.549-0.015,4.671,0,8.453c0,3.217-1.483,3.282-2.556,6.896
	c-0.191,0.617-0.353,1.293-0.484,1.961L0,37.498c1.88-3.664,0.969-6.558,0.793-8.93c-0.264-3.239,0.603-3.547,4.598-7.439
	C5.141,22.84,4.656,25.88,4.113,28.12z M43.888,28.12c0.132,0.536-0.588,0.874-0.823,0.301c-0.278-0.69-0.749-3.635-1.146-6.602
	c-0.205-1.587-2.335-1.389-2.335,0.249c0.015,2.549,0.015,4.671,0,8.453c0,3.217,1.483,3.282,2.556,6.896
	c0.19,0.617,0.353,1.293,0.484,1.961L48,37.498c-1.88-3.664-0.97-6.558-0.793-8.93c0.265-3.239-0.603-3.547-4.598-7.439
	C42.845,22.84,43.358,25.88,43.888,28.12z M37.836,30.059c-4.788,0.396-8.857,1.256-12.146,2.563V15.694
	c3.525-2.196,8.577-3.033,12.72-3.386v7.909c0.793-1.131,2.262-1.52,3.48-1.021V8.622c-6.859,0.213-13.557,1.314-17.948,4.054
	C19.55,9.937,12.837,8.835,5.993,8.622v10.634c1.16-0.558,2.629-0.249,3.481,0.801v-7.748c4.142,0.353,9.195,1.189,12.72,3.386
	v16.928c-3.261-1.3-7.285-2.151-12.029-2.556c0,0.808,0.029,2.07-0.529,3.451c4.583,0.375,8.916,1.227,12.309,2.783
	c1.263,0.58,2.717,0.58,3.98,0c3.438-1.571,7.814-2.423,12.426-2.79C37.807,32.145,37.836,30.911,37.836,30.059z M35.134,22.568
	c-2.497,0.47-4.817,1.072-7.124,1.857v-2.452c2.291-0.749,4.627-1.329,7.124-1.771V22.568z M35.134,16.01
	c-2.497,0.44-4.833,1.021-7.124,1.771v2.452c2.307-0.785,4.627-1.388,7.124-1.857V16.01z M12.749,20.203
	c2.497,0.441,4.818,1.021,7.124,1.771v2.452c-2.306-0.785-4.626-1.388-7.124-1.857V20.203L12.749,20.203z M12.749,18.375
	c2.497,0.47,4.818,1.072,7.124,1.857V17.78c-2.306-0.749-4.626-1.33-7.124-1.771V18.375L12.749,18.375z M12.749,26.82
	c2.497,0.47,4.818,1.072,7.124,1.858v-2.461c-2.306-0.741-4.626-1.321-7.124-1.763V26.82L12.749,26.82z"/>
</svg>
