<?xml version="1.0" encoding="utf-8"?>
<!-- Generator: Adobe Illustrator 16.0.0, SVG Export Plug-In . SVG Version: 6.00 Build 0)  -->
<!DOCTYPE svg PUBLIC "-//W3C//DTD SVG 1.1//EN" "http://www.w3.org/Graphics/SVG/1.1/DTD/svg11.dtd">
<svg version="1.1" id="Layer_1" xmlns="http://www.w3.org/2000/svg" xmlns:xlink="http://www.w3.org/1999/xlink" x="0px" y="0px"
	 width="48px" height="48px" viewBox="0 0 48 48" enable-background="new 0 0 48 48" xml:space="preserve">
<path id="help-8-icon_1_" fill="#FFFFFF" d="M7.439,0C4.238,0,1.636,2.602,1.636,5.824v36.343C1.636,45.389,4.238,48,7.439,48
	h38.924V0H7.439z M8.621,4.423c2.622,0,33.2,0,33.2,0v4.022c0,0-29.998,0-33.2,0C5.878,8.445,5.878,4.423,8.621,4.423z
	 M41.701,43.337H12.283V13.168h29.418V43.337z M18.887,27.957l1.441-1.34c1.681,0.82,2.762,1.44,4.682,2.801
	c3.562-4.062,5.945-6.123,10.328-8.865l0.479,1.081c-3.621,3.172-6.283,6.694-10.105,13.559C23.35,32.41,21.769,30.64,18.887,27.957
	z"/>
</svg>
