<?xml version="1.0" encoding="utf-8"?>
<!-- Generator: Adobe Illustrator 16.0.0, SVG Export Plug-In . SVG Version: 6.00 Build 0)  -->
<!DOCTYPE svg PUBLIC "-//W3C//DTD SVG 1.1//EN" "http://www.w3.org/Graphics/SVG/1.1/DTD/svg11.dtd">
<svg version="1.1" id="Layer_1" xmlns="http://www.w3.org/2000/svg" xmlns:xlink="http://www.w3.org/1999/xlink" x="0px" y="0px"
	 width="48px" height="48px" viewBox="0 0 48 48" enable-background="new 0 0 48 48" xml:space="preserve">
<path id="note-25-icon" fill="#FFFFFF" d="M10.888,25.974h22.566v3.497H10.888V25.974z M32.475,21.856H10.888v-3.488h16.57
	C28.816,19.907,30.536,21.106,32.475,21.856z M43.068,21.376v9.114c0,7.146-9.794,17.51-17.709,17.51H1.274V0.06h26.963
	c-0.101,0.09-0.18,0.19-0.28,0.28c-1.279,1.27-2.258,2.758-2.897,4.377H5.911v38.636c13.771,0,15.63,0,19.368,0
	c6.855,0,4.077-8.854,4.077-8.854s9.055,2.938,9.055-4.407c0-1.14,0-3.997,0-7.405C40.07,22.546,41.629,22.096,43.068,21.376z
	 M10.888,10.763H24.16c0.1,1.209,0.379,2.378,0.799,3.488H10.888V10.763z M38.031,6.646c0-0.01,0-0.07,0.04-0.06v0.01
	c0.02,0,0.02-0.02,0.04-0.01c0.02,0,0.04,0.02,0.06,0.02c0.021,0,0.021-0.01,0.04-0.02l0.021,0.01c0.02,0,0.04-0.02,0.04-0.02
	c0.02-0.01,0.02,0,0.04,0c0.02,0,0.02-0.01,0.02-0.01s0,0,0.02,0c0,0,0,0.01,0,0.02c0,0.03-0.02,0.04-0.02,0.08
	c-0.02,0.01,0.02,0.02,0,0.04c0,0.05-0.02,0.05-0.02,0.05c-0.021,0.01-0.04,0-0.04,0c-0.021-0.01-0.04-0.02-0.04-0.03
	c-0.021-0.01-0.021-0.01-0.021-0.01c-0.04-0.02-0.12-0.07-0.14-0.07l-0.021,0.01l0,0C38.031,6.656,38.031,6.646,38.031,6.646z
	 M36.372,4.287L36.372,4.287c0,0,0,0,0,0.01c0,0,0,0,0,0.01c0,0,0,0,0.021,0c0-0.01,0-0.01,0.02-0.03v-0.01
	c0.021,0,0.021-0.01,0.04-0.01l0,0v0.01c0,0.02,0.021,0.04,0,0.06c-0.02,0-0.02,0.01-0.04,0.02c0,0,0,0.01,0,0.02l0.021,0.01l0,0
	l0,0c0.02,0.02,0.02,0.02,0.04,0l0,0l0,0c0,0.01,0.02,0.02,0.02,0.02c0.02,0.01,0.02,0.02,0.02,0.03l0,0l0,0
	c0.021,0.03,0,0.07-0.02,0.09s-0.04,0.03-0.08,0.02l0,0c0,0,0,0-0.02,0c0,0.01,0,0.02,0,0.02c0.02,0,0.02,0,0.02,0.01
	c0,0.02-0.04,0.01-0.04,0.03l0,0l0,0c0,0,0,0,0,0.01l0,0c0.021-0.01,0.04-0.01,0.04-0.01c0.021-0.01,0,0.05,0,0.06
	c0,0.01-0.06,0.02-0.08,0.02c-0.02,0.01-0.02,0.01-0.02,0.01c0,0.01,0,0.03,0,0.04c0.02,0.01,0.06-0.01,0.08-0.01l0,0
	c0.02,0.01,0.04,0.02,0.06,0.04l0,0c0,0.01,0.021,0.01,0.021,0l0,0c0-0.01,0.02-0.01,0.02-0.01c0.02,0,0.02,0,0.02,0.01v0.01
	c-0.02,0.01-0.039,0.03-0.06,0.02c-0.02,0-0.04,0-0.04,0c-0.04,0.01-0.08,0.02-0.1,0.05c-0.021,0.01-0.021,0.02-0.04,0.03
	c0,0.01,0,0.01,0,0.02h0.02c0,0,0.021,0,0.021-0.01c0.02,0,0.04-0.02,0.06,0.01l0,0l0,0c0.04-0.01,0.04-0.05,0.08-0.05
	c0.021,0,0.021,0.02,0.06,0.02c0.021-0.01,0.04-0.03,0.08-0.03l0.04,0.01c0,0.01,0,0.01,0.061,0.01c0.02,0,0.02,0.01,0.04,0.02
	c0.02,0,0.04-0.01,0.06-0.01l0,0l0,0c0,0,0.06-0.01,0.06-0.04l0,0l0,0c-0.02-0.01-0.04-0.04-0.04-0.06v-0.01h0.021v0.01l0,0
	c0.02-0.01,0.04-0.02,0.06-0.03c0.021,0,0.021-0.01,0.021-0.03c0-0.01,0-0.04-0.04-0.06l0,0c0,0-0.08-0.04-0.08-0.03
	c-0.02,0.01-0.02,0.01-0.04,0c0-0.01,0-0.01,0-0.01c0.021-0.02,0.021-0.02,0.021-0.03c0-0.01,0-0.02,0-0.03
	c-0.021-0.01-0.021-0.02-0.021-0.03c0.021,0,0.021,0,0.021,0l-0.04-0.07l0,0c-0.021,0-0.021,0-0.04,0l0,0l0,0l0,0
	c0-0.02-0.021-0.03-0.021-0.04c0-0.01,0-0.03,0-0.04c0-0.01,0-0.03,0-0.04c-0.02-0.05-0.02-0.1,0-0.15
	c0.021-0.01,0.021-0.03,0.04-0.05c0.021-0.04-0.1-0.03-0.12-0.03l0,0v-0.01c0-0.01,0-0.02,0-0.03c0.021-0.01,0.021-0.01,0.04-0.02
	c0.04-0.02,0.021-0.03,0-0.03c-0.02-0.01-0.04-0.01-0.08-0.01h-0.02c-0.021,0.01-0.021,0.01-0.021,0.02
	c-0.02,0.02-0.039,0.04-0.06,0.06l0,0c-0.02,0.01-0.02,0.01-0.02,0.01c-0.021,0-0.021,0-0.021,0l0,0l-0.02,0.01
	c0,0.01,0,0.02,0,0.03c0.02,0,0.02,0.01,0.02,0l0,0v0.01c0,0.01,0,0.02,0,0.03l0,0c0,0.01,0,0,0,0c-0.02,0-0.02,0-0.02,0l0,0
	c-0.021,0-0.021,0.03-0.021,0.05l0,0C36.393,4.227,36.393,4.257,36.372,4.287z M46.726,9.584c0,5.296-4.297,9.584-9.574,9.584
	c-5.296,0-9.594-4.288-9.594-9.584C27.558,4.287,31.855,0,37.151,0C42.429,0,46.726,4.287,46.726,9.584z M39.97,5.457
	c0-0.02,0.04-0.02,0.061-0.05c0-0.01-0.021-0.02-0.021-0.03c-0.02-0.01-0.02-0.01-0.04,0c-0.02,0.01-0.02,0.01-0.04,0.01
	c0,0,0-0.01,0-0.02c-0.02-0.01,0-0.02,0-0.02v-0.01l0,0l0,0c-0.04-0.01-0.06-0.01-0.08-0.02c-0.039,0-0.06,0-0.1,0.01
	c-0.02,0.01-0.02,0.01-0.04,0.03c0,0.05-0.02,0.07-0.02,0.08c-0.021,0.03-0.04,0.06-0.04,0.1c-0.021,0.01-0.021,0.03-0.04,0.04l0,0
	c0,0-0.021,0.08,0,0.09c0,0.02,0,0.04,0,0.06s-0.04,0.01-0.04,0.03l0,0c0,0.03,0,0.07,0,0.1v0.01l0,0l0,0
	c-0.02-0.01-0.02-0.01-0.02-0.01c0,0.01,0,0.02,0,0.02l0,0l0.039,0.05c0.021,0.05,0.08,0.09,0.141,0.11l0,0c0.02,0.01,0.06,0,0.08,0
	c0.039,0,0.079,0,0.119,0c0,0,0.021-0.01,0.04-0.01c0-0.01,0.021-0.02,0.021-0.03l0,0c0-0.01,0-0.01,0.04-0.04
	c0.02-0.02,0.06-0.03,0.08-0.05c0.04-0.04,0.1,0,0.159-0.02l0.18,0.06l0,0c0.04,0.02,0.181,0.02,0.2,0.03
	c0.021,0,0.04,0.01,0.04,0.01v-0.01c0.04-0.01,0.061-0.05,0.08-0.03c0.06,0.03,0.24,0.01,0.2-0.13c-0.021-0.08-0.12-0.12-0.16-0.13
	c-0.08-0.04-0.14-0.11-0.22-0.16c-0.04-0.02-0.08,0-0.12-0.02c-0.08-0.03-0.08-0.03-0.08-0.05v-0.01c0.021-0.03,0.04-0.06,0.04-0.1
	l0,0c0.02-0.02,0.02-0.02,0-0.03s-0.06,0-0.06-0.03c0-0.03,0.04-0.06,0.079-0.07c0-0.01,0.021-0.02,0.021-0.03
	s-0.021-0.03-0.021-0.03c-0.02,0-0.1,0.04-0.1,0.05l0,0l0,0l0,0l-0.18,0.09l0,0c-0.02,0.02-0.04,0.05-0.04,0.09
	c0,0.03,0.04,0.07,0.06,0.08c0.021,0.01,0.04,0.01,0.021,0.02l0,0c0,0.01-0.08,0.09-0.1,0.09c-0.021,0.01-0.021,0-0.021-0.01l0,0
	c-0.02-0.04-0.06-0.08-0.1-0.09C39.99,5.477,39.97,5.466,39.97,5.457z M44.807,9.584c0-0.79-0.119-1.599-0.26-2.019
	c-0.06-0.14-0.159-0.24-0.279-0.29c-0.12-0.05-0.28-0.04-0.4,0.02c-0.3,0.18-0.3,0.2-0.399,0.2c-0.06,0-0.279,0.14-0.359-0.03
	c0-0.03-0.08-0.169-0.2,0.03c-0.02,0.05-0.18,0.01-0.24-0.02c-0.14-0.09-0.34-0.29-0.379-0.34l0,0l0,0
	c-0.061-0.06-0.221,0.02-0.101,0.19c0.38,0.56,0.439,0.57,0.54,0.62l0,0c0.06-0.03,0.04-0.05,0.12-0.06c0.04,0,0.079-0.03,0.1-0.06
	v-0.01c0.02-0.04,0.06-0.07,0.1-0.08c0.04-0.01,0.101,0,0.12,0.04l0,0c0.08,0.05,0.16,0,0.22,0.03c0.18,0.09,0.12,0.25,0.08,0.45
	l0,0c0,0.01,0,0.01,0,0.01c-0.02-0.01-0.02,0-0.02,0.02c0,0.07,0.02,0.12,0.02,0.19l0,0c-0.02,0.01-0.06,0.03-0.06,0.04
	c-0.061,0.06-0.061,0.12-0.101,0.189c-0.04,0.05,0,0.18-0.1,0.18c-0.04,0-0.16,0.07-0.18,0.15c-0.021,0.1-0.08,0.19-0.16,0.25
	c-0.06,0.05-0.14,0.12-0.24,0.2c-0.04,0.04-0.239,0.26-0.419,0.3c-0.04,0.01-0.061-0.01-0.08-0.03l0,0
	c-0.101-0.18-0.141-0.39-0.22-0.58c-0.12-0.229-0.4-0.29-0.48-0.54c-0.06-0.2-0.1-0.29-0.199-0.35c-0.061-0.04-0.12-0.09-0.16-0.15
	c-0.06-0.11-0.16-0.26-0.26-0.34c-0.04-0.04-0.06-0.08-0.06-0.13c0-0.03-0.04-0.03-0.04,0c-0.021,0.08,0.02,0.11-0.021,0.12
	c-0.02,0.02-0.04,0.01-0.06-0.01c-0.061-0.06-0.16-0.17-0.181-0.23l0,0c0,0.02,0,0.05,0.021,0.07c0.12,0.189,0.76,1.089,0.779,1.179
	c0.101,0.58,0.54,0.709,0.76,0.919c0.06,0.04,0.08,0.1,0.1,0.15c0,0.05,0.021,0.1,0.061,0.14c0.04,0.03,0.08,0.03,0.319,0
	c0.04-0.01,0.08-0.04,0.1-0.06c0.021-0.02,0.221-0.09,0.24-0.11c0.04-0.03-0.02-0.01,0.1-0.07c0.061-0.02,0.101-0.16,0.101,0
	c-0.021,0.04,0.02,0.08,0,0.12c-0.021,0.24-0.04,0.28-0.04,0.33c-0.021,0.06-0.04,0.12-0.08,0.18c-0.06,0.3-0.18,0.61-0.38,0.85
	v0.01c-0.12,0.1-0.319,0.29-0.479,0.609c-0.1,0.2-0.26,0.38-0.36,0.58c-0.039,0.07-0.039,0.08,0,0.17
	c0.021,0.07,0.08,0.37,0.101,0.75c0,0.42-0.061,0.49-0.2,0.58c-0.22,0.16-0.359,0.26-0.46,0.34c-0.119,0.09-0.18,0.22-0.18,0.37
	c0,0.05-0.02,0.12-0.06,0.2l0,0c0,0.02-0.28,0.16-0.38,0.28l0,0l0,0c0.08,0.21-0.76,0.81-0.939,0.81c-0.12,0-0.439,0.05-0.58,0.11
	c-0.1,0.04-0.359-0.05-0.399-0.11c0,0,0-0.02,0.021-0.02c0.06-0.06-0.16-0.38-0.221-0.42c-0.02-0.02-0.079-0.17-0.119-0.21
	c-0.08-0.11,0.06-0.27-0.04-0.39v-0.01l-0.26-0.37c-0.04-0.05-0.16-0.12-0.16-0.189l0,0c0-0.08,0.14-0.44,0.14-0.46
	c0.021-0.02,0.021-0.04,0.04-0.06c0-0.01,0.021-0.01,0.04-0.03c0.06-0.03,0.16-0.11,0.04-0.29c0-0.01,0,0.04-0.04-0.21
	c-0.02-0.16-0.22-0.529-0.26-0.56c0,0-0.24-0.12-0.359-0.35c0-0.02,0.02-0.03,0.02-0.04c0.1-0.08,0.08-0.19,0.12-0.41
	c0-0.01,0-0.02,0-0.03c0-0.01,0-0.01,0-0.01l0.02-0.01l0,0l0,0c0-0.04,0-0.11-0.06-0.2c0-0.02-0.021-0.02-0.04-0.02l0,0
	c-0.04,0-0.06-0.02-0.08-0.05l0,0c0-0.01,0-0.01,0-0.01c-0.04-0.02-0.1-0.02-0.14-0.01c-0.12,0.04-0.34,0.09-0.38-0.07
	c-0.04-0.2-0.18-0.24-0.24-0.24c-0.3,0.02-0.539,0.27-0.839,0.25c-0.021,0-0.04-0.01-0.04-0.01c-0.26-0.1-0.56-0.1-0.819-0.16
	c-0.08-0.01-0.221-0.05-0.28-0.12l-0.38-0.37c-0.02-0.02-0.04-0.04-0.06-0.07c-0.12-0.18-0.16-0.58-0.2-0.66c0-0.01,0-0.02,0-0.02
	l-0.04-0.07l0,0l0,0c-0.08-0.11-0.12-0.26-0.06-0.4l0.14-0.479c0-0.01,0-0.02,0-0.03c0-0.01,0-0.03,0.02-0.04
	c0.021-0.25-0.02-0.34-0.039-0.38c-0.04-0.08-0.04-0.08,0.159-0.37c0.4-0.54,0.46-0.56,0.54-0.59l0,0l0,0
	c0.16,0.02,0.46-0.19,0.46-0.3c0-0.03,0-0.1,0.06-0.21c0.021-0.03,0.06-0.07,0.08-0.09l0.359-0.28c0.061-0.05,0.141-0.06,0.22-0.02
	l0,0c0.04-0.01,0.101-0.01,0.141,0.01c0.06,0.03,0.1,0.01,0.12,0c0.199-0.1,0.419-0.13,1.479-0.2c0.04,0,0.06,0.02,0.1,0.04v0.01
	c0.061,0.07,0,0.07,0.08,0.18c0.021,0.05,0,0.08-0.08,0.17c-0.04,0.03-0.04,0.08-0.02,0.08c0.02,0.01,0.1,0.02,0.16,0.05
	c0.06,0.04,0.18,0.08,0.279,0.11c0.101,0.03,0.18,0.08,0.24,0.15c0.04,0.04,0.56,0.36,0.52-0.07c0-0.03,0.04-0.08,0.08-0.12
	c0.18-0.14,0.3,0.04,0.359,0.05c0.061,0.02,0.08,0.02,0.12,0.02l0,0l0,0c0.04,0,0.08,0.05,0.22,0.04c0.26-0.01,0.52,0.03,0.779-0.02
	c0.021,0,0.061-0.01,0.101-0.03c0.279-0.24-0.021-0.53,0.04-0.779v-0.01c-0.021,0-0.021,0-0.021,0l0,0
	c-0.08,0.01-0.16,0.04-0.22,0.1c-0.04,0.02-0.06,0.04-0.1,0.04c-0.08,0.01-0.12-0.04-0.2-0.06c-0.02-0.01-0.06,0-0.06,0.03H40.01
	c-0.02,0.06-0.279,0.02-0.359-0.12c-0.04-0.04-0.08-0.07-0.12-0.09l0,0l0,0c0.08-0.08-0.04-0.14-0.04-0.189
	c-0.02-0.03,0-0.06,0.021-0.07c0,0,0,0,0.02,0c0.06-0.03,0.08-0.07,0.08-0.06c-0.04,0.02-0.08,0.04-0.1,0.04l0,0
	c-0.021,0-0.04,0-0.061-0.01c-0.04-0.03-0.08-0.04-0.12-0.04c-0.06,0-0.119,0.02-0.119,0.07c0,0.01-0.021,0.02-0.021,0.03l0,0h-0.02
	c-0.021-0.01-0.04,0-0.04,0c-0.021,0.01-0.021,0.02-0.021,0.04c0,0.05,0.14,0.09,0.04,0.14h-0.02l-0.04,0.03
	c-0.04,0.02-0.101-0.03-0.141-0.03h-0.02l0,0c-0.02,0-0.02,0-0.02,0l0,0c0,0-0.04-0.04-0.061-0.05c0-0.02,0-0.03-0.02-0.04
	c0,0-0.021-0.01-0.021-0.02c-0.02-0.01-0.04-0.03-0.04-0.06l0,0c0-0.02,0-0.04,0-0.08c0-0.06-0.04-0.12-0.1-0.16
	c-0.021-0.01-0.021-0.01-0.04-0.01s-0.02-0.01-0.04-0.01c-0.04-0.03-0.08-0.04-0.08-0.04l0,0l-0.319-0.25
	c-0.021-0.01-0.04-0.02-0.061-0.01c-0.04,0-0.04-0.02-0.04-0.04c-0.02-0.03-0.079-0.05-0.119-0.04c0,0.01,0,0.01,0,0.01
	c-0.021,0.01-0.021,0.03-0.021,0.06c0,0.01,0.021,0.02,0.021,0.04l0.199,0.28c0.04,0.05,0.08,0.07,0.141,0.07
	c0.039,0,0.039,0.02,0.039,0.05c0.021,0.01,0.021,0.02,0.021,0.02c0.1,0.06,0.22,0.07,0.279,0.17l0,0l0,0l0,0c0,0.01,0,0.03,0,0.04
	c0,0.02-0.02,0.02-0.039,0.01c0,0,0-0.01,0-0.03c0,0,0,0,0-0.01c-0.021-0.02-0.04-0.03-0.061-0.04c-0.04-0.02-0.08,0-0.1,0.03l0,0
	v0.01c-0.021,0.04,0.02,0.05,0.02,0.06c0.021,0.01,0.061,0.02,0.04,0.07c0,0.02-0.02,0.01-0.02,0.02c0,0,0,0-0.04,0.07
	c0,0.03,0,0.04-0.04,0.05c-0.021,0.02-0.04,0-0.04-0.01c-0.021-0.02,0-0.04,0-0.06c0-0.01,0-0.01,0.04-0.03
	c0.04-0.01,0-0.07-0.04-0.11l0,0c-0.04-0.08-0.021-0.02-0.06-0.07c-0.04-0.03-0.12-0.08-0.141-0.1c-0.12-0.15-0.319-0.21-0.399-0.38
	c-0.021-0.03-0.061-0.06-0.1-0.07c-0.021-0.01-0.04-0.02-0.08-0.02c-0.021,0.01-0.16,0.08-0.26,0.15
	c-0.12,0.05-0.181-0.09-0.28-0.05c-0.12,0.05-0.04,0.19-0.14,0.24c-0.101,0.06-0.24,0.08-0.32,0.17l-0.02,0.01
	c-0.021,0.07-0.08,0.09-0.08,0.11c0,0.01,0,0.02,0,0.04c0.02,0.04,0,0.08-0.02,0.11l0,0c-0.021,0.02-0.021,0.07-0.021,0.08
	c-0.04,0.02-0.08,0-0.12,0.01c-0.04,0.02-0.04,0.09-0.1,0.1c-0.06,0.02-0.14-0.02-0.2-0.01c-0.14,0.03-0.14,0.03-0.159,0.05
	c0,0.01-0.021,0.03-0.04,0.03c-0.08,0-0.04-0.1-0.08-0.14c-0.04-0.05-0.061-0.04-0.08-0.03c-0.021,0.01-0.061,0.02-0.08,0.02
	c0-0.01-0.021-0.03-0.04-0.04c-0.02,0-0.02-0.01-0.02-0.02c-0.021-0.02,0-0.11,0.02-0.14c0-0.01,0-0.03-0.02-0.05
	c0-0.01-0.021-0.02-0.04-0.02v-0.01c-0.021-0.02,0.06-0.11,0.1-0.16c0-0.01,0-0.02,0-0.03c0.08-0.19,0.08-0.26,0.06-0.32
	c0-0.04,0.021-0.06,0.04-0.07c0.021,0,0.04,0,0.061,0l0,0c0.02-0.04,0.08-0.04,0.12-0.02c0.06,0.03,0.18,0.07,0.379,0.08
	c0.061,0,0.101,0.01,0.16,0.03c0.04,0.02,0.061-0.02,0.08-0.04c0.04-0.05,0.04-0.11,0.04-0.17c0.02-0.02,0.02-0.05,0.06-0.07l0,0
	c0,0,0-0.01,0-0.02c0-0.01,0-0.09-0.02-0.09c0,0,0,0,0-0.01c-0.1-0.01-0.061-0.11-0.12-0.15c-0.04-0.03-0.04-0.05-0.16-0.06
	c-0.02,0,0.021-0.08,0.101-0.1c0-0.01,0,0,0,0c0.04,0.02,0.08,0.03,0.14,0.03c0.02-0.01,0.04-0.01,0.04-0.03
	c0.02-0.01,0.02-0.03,0.02-0.05l0,0c0-0.02,0-0.04,0.021-0.03c0.04,0.03,0.06,0.04,0.12,0.03c0.02,0,0.04-0.01,0.04-0.03
	c0-0.01,0-0.01,0.02-0.02c0.08-0.04,0.1-0.06,0.12-0.07c0.04-0.05,0.08-0.08,0.12-0.11c0.079-0.04,0.1-0.06,0.159-0.12
	c0.04-0.03,0.061-0.04,0.101-0.05c0.02,0,0.02-0.02,0.02-0.03l0,0c0.021-0.02,0.04-0.03,0.061-0.03c0.04-0.01,0.079-0.01,0.1-0.01
	l0,0c0-0.01,0.02-0.02,0.06-0.02s0.101,0.02,0.101-0.11c-0.021-0.13,0.02-0.25,0.1-0.34l0,0c0.04,0.02,0.04,0.06,0.04,0.1
	c0,0.02,0,0.05-0.021,0.07l0,0c-0.159,0.18,0.04,0.17,0.061,0.22l0,0c0,0.01,0,0.02,0,0.02h0.02c0.021,0,0.181-0.07,0.181-0.07
	c0.039,0.02,0.02,0.04,0.039,0.06l0,0c0.04,0.03,0.08,0.04,0.12,0.01c0.101-0.04,0.2-0.06,0.32-0.04c0.04,0.01,0.159-0.12,0.14-0.18
	l0,0c0-0.04,0-0.09,0-0.13c0-0.03,0-0.04,0.02-0.06c0.021-0.01,0.04-0.01,0.061-0.01c0.02,0.01,0.04,0.02,0.06,0
	c0.04-0.01,0.061-0.04,0.061-0.07l0,0c0-0.01,0-0.01,0-0.02c-0.04-0.01-0.061-0.05-0.061-0.08c0.021-0.04,0.04-0.06,0.08-0.07
	c0.1-0.02,0.12,0.04,0.22-0.05c0.021-0.01,0.021-0.02,0.021-0.03l-0.021-0.01l0,0c-0.08-0.02-0.18-0.01-0.26,0.01l-0.1,0.04l0,0l0,0
	l0,0c-0.021,0.01-0.021,0.02-0.061,0.02c-0.06-0.01-0.1-0.07-0.14-0.15c-0.02-0.08-0.02-0.17,0.04-0.25
	c0.021-0.03,0.04-0.08,0.061-0.11c0.02-0.02,0.02-0.04,0.02-0.06c-0.02-0.05-0.1-0.07-0.14-0.06c-0.12,0.03-0.04,0.14-0.08,0.2
	c-0.021,0.03-0.12,0.06-0.12,0.1c-0.02,0.12-0.04,0.19-0.02,0.23c0.02,0.09,0,0.18-0.04,0.26l0,0c-0.021,0.08,0.04,0.15,0,0.22
	c-0.04,0.09-0.141,0.02-0.16,0.12c-0.021,0.04-0.1-0.02-0.12-0.05c0-0.08-0.04-0.12-0.06-0.18c-0.021-0.05-0.061-0.1-0.12-0.11
	c-0.14-0.04-0.16,0.1-0.3,0.06c-0.1-0.03-0.16-0.12-0.18-0.23c0-0.1,0.06-0.2,0.159-0.24l0,0c0.32-0.14,0.4-0.26,0.42-0.33
	c0-0.02,0.021-0.04,0.04-0.04l0,0l0,0c0-0.02,0-0.04,0.021-0.05c0.04-0.03,0.06-0.07,0.08-0.11c0.039-0.03,0.079-0.09,0.079-0.09
	l0,0c0,0,0.16-0.17,0.34-0.23c0.08-0.03,0.16-0.03,0.16-0.02c0.04,0.01,0.06,0.01,0.1,0.02l0,0c0,0.02,0,0.03,0.021,0.04
	c0.02,0.04,0.1,0.03,0.2,0.07c0.1,0.05,0.22,0.04,0.339,0.06c0.04,0.01,0.08,0.05,0.061,0.1c0,0.05-0.04,0.08-0.08,0.08
	s-0.08,0.02-0.08,0.05c-0.02,0.03,0,0.06,0.021,0.08c0.04,0.04,0.079,0.06,0.14,0.08c0.06,0.02,0.14,0.03,0.1-0.01l0,0
	c-0.02-0.02-0.02-0.03-0.04-0.03c-0.08,0-0.06-0.07-0.02-0.05s0.18,0.03,0.08-0.05c0-0.01,0-0.03,0-0.04
	c0.02-0.02,0.02-0.04,0.04-0.06c0.02-0.05,0.02-0.04,0.08-0.02c0,0.01,0.02,0,0.02,0c0.02-0.02,0.04-0.03,0.02-0.04
	c0-0.01,0.021-0.03,0.04-0.03c0.021,0.01,0.04,0,0.04-0.01c0-0.02,0.021-0.03,0-0.04c0-0.04,0.04-0.14,0.08-0.16c0,0,0.021,0,0.04,0
	l0,0c0-0.01,0.021-0.01,0.021-0.02c0.039-0.01,0.079-0.02,0.1-0.05c0.02-0.02,0.06-0.03,0.1-0.02l0,0c0.021-0.01,0.021-0.03,0-0.05
	c-0.02-0.01-0.08-0.05-0.08-0.08c0-0.01,0.04-0.02,0.061-0.06c0-0.02-0.021-0.05-0.04-0.06c-0.739-0.29-1.539-0.47-2.379-0.52
	c-0.159,0.1-0.319,0.21-0.46,0.32c-0.499,0.42-1.299,0.6-1.278,0.55c-0.08,0-0.08-0.02-0.08-0.02c-0.04,0-0.061,0.02-0.08,0l0,0
	v-0.02c-0.04-0.02-0.101,0.02-0.22,0.09l0,0l0,0c-0.061,0.03-0.12,0.04-0.16,0.04c-0.02,0-0.06,0-0.08,0.01h-0.02
	c0-0.02,0.04-0.03,0.06-0.03c0.021-0.01,0-0.03-0.06,0.01c-0.021,0-0.021,0-0.04,0c-0.061-0.01-0.141,0.04-0.2,0.08
	c0,0.01-0.02,0.01-0.02,0c-0.021,0-0.04,0-0.04,0.03c0.02,0.03-0.16,0.1-0.16,0.09c0-0.01,0-0.02-0.021-0.02
	c-0.02,0.01-0.039,0.03-0.06,0.05c-0.02,0.05-0.1,0.06-0.14,0.09c-0.04,0.03-0.08,0.07-0.08,0.07c-0.021,0.02-0.04,0.03-0.061,0.03
	c-0.02,0-0.039-0.03-0.02-0.05c0-0.01,0.04-0.05,0.02-0.05l0,0c0-0.02,0.04-0.03,0.021-0.05c0-0.01-0.06-0.01-0.08-0.02v-0.01
	c0.04-0.08,0.04-0.08,0.1-0.13l0,0c0-0.01,0-0.02,0-0.03c0.021-0.04,0.12-0.17,0.24-0.18c0.021-0.01,0-0.01,0-0.01
	c-0.02-0.01-0.06-0.02-0.04-0.05c0.04-0.04,0.1-0.09,0.16-0.13c0.04-0.01,0.06-0.03,0.1-0.06c0.021-0.02,0.12-0.06,0.22-0.06l0,0
	c0.08-0.01,0.3-0.16,0.3-0.16l0,0c0-0.01,0-0.03,0-0.04v-0.01c0.04-0.01,0.061-0.02,0.08-0.03l0,0c0-0.02,0-0.02-0.02-0.02
	c-0.04,0.02-0.061,0.03-0.061,0.03c-0.02,0-0.02,0-0.02-0.01v-0.01c0.06-0.04,0.12-0.05,0.18-0.07c0.04-0.01,0.04-0.06-0.02-0.06
	c-0.28,0.05-0.54,0.13-0.8,0.22l0,0c0,0.01-0.06,0.03-0.06,0.04c0,0,0,0.01,0,0.02l0,0l0,0c-0.021,0.01-0.021,0-0.04,0.01
	c0,0.02,0.02,0.01,0.02,0.02c0,0.01,0,0.02,0,0.02l0,0c0,0.01-0.04,0.03-0.06,0.02c0-0.01,0-0.01,0-0.01
	c-0.04,0.02-0.061,0.03-0.08,0.03c-0.061,0.02-0.12,0.05-0.12,0.05c0-0.01,0.04-0.03,0.04-0.05c0-0.03,0.02-0.04,0.04-0.04
	c0.02-0.01,0.02-0.03-0.04,0c-0.061,0.02-0.1,0.05-0.16,0.09c-0.04,0.04-0.08,0.08-0.12,0.09c0.021-0.01,0.021-0.01,0-0.01
	c0,0-0.02,0.03-0.04,0.03c-0.04-0.01,0.021-0.03,0.021-0.07c0-0.01,0-0.01,0-0.02l0,0c-0.04,0.02-0.08,0.05-0.1,0.09
	c-0.04,0.02-0.04,0.05-0.08,0.03c-0.021-0.01-0.04-0.02-0.04-0.01c-0.12,0.05-0.22,0.1-0.32,0.15c-0.02,0.01-0.02,0.02-0.04,0.02
	c0,0.01,0,0.02,0,0.03c0,0.01-0.02,0.04-0.04,0.05v0.01c0.021,0.02,0.061,0.01,0.061,0c0.02-0.01,0.06,0,0.06,0.02
	c0.021,0.03,0.021,0.05,0,0.07c-0.02,0.02-0.04,0.03-0.04,0.05c-0.02,0.03-0.04,0.07-0.08,0.09c-0.02,0.01-0.06,0.03-0.079,0.05
	c-0.181,0.18-0.2,0.5-0.34,0.56l0,0c-0.12,0.06-0.16,0.01-0.3,0.06c-0.021,0.01-0.04,0-0.061,0c-0.02-0.01-0.04-0.02-0.04-0.04l0,0
	c-0.04-0.08-0.12-0.12-0.199-0.09c-0.021,0.01-0.021,0.01-0.04,0.01c0,0,0,0,0-0.01l0,0c-0.021,0.01-0.181,0.06-0.181,0.09
	c0,0,0.28-0.09,0.221,0.06l0,0c0,0.01-0.021,0.01-0.021,0.02c0,0.01-0.02,0.03-0.04,0.03c-0.02,0.01-0.06,0-0.06-0.02l0,0
	c-0.021,0-0.04,0.03-0.021,0.05c0,0.01,0.04,0.01,0,0.03c-0.02,0.02-0.06,0.02-0.06,0.05c-0.021,0.03-0.04,0.05-0.04,0.08
	c-0.021,0.03,0.02,0.04-0.021,0.06c-0.039,0.03-0.159,0-0.199,0.01c0,0-0.08,0.01-0.12,0.02c-0.04,0.02-0.14,0.04-0.18,0.09
	c-0.08,0.1-0.061,0.12-0.16,0.09c0,0-0.02,0-0.02,0.01c-0.92,0.979-1.6,2.208-1.899,3.578v0.01c-0.02,0.08-0.04,0.189-0.08,0.39
	v0.01c0.021,0.02,0.021,0.03,0.04,0.03c0.061,0,0.12,0.05,0.141,0.11c0,0.02,0.02,0.04,0.02,0.04c0.021,0.01,0.04,0.01,0.06,0
	c0-0.01,0.061,0.04,0.08,0.1c0,0.04,0,0.07,0,0.11c0.021,0.03,0,0.07-0.02,0.11v0.01c0.02,0.13,0.18,0.669,0.199,0.689
	c0.021,0,0.04,0.01,0.04,0.02c0.3,0.33,0.64,0.87,0.62,1.049c-0.061,0.12-0.061,0.11,0,0.18c0.1,0.13,0.1,0.14,0.06,0.26l0,0
	c0.021-0.04,0.061-0.05,0.12-0.05c0.04,0,0.08,0.02,0.1,0.05c0.021,0.03,0.04,0.06,0.061,0.08c0.06,0.05,0.08,0.13,0.08,0.22
	c0,0,0.1,0,0.22,0.09c0.16,0.13,0.739,0.79,0.76,0.969c0.02,0.08-0.021,0.17-0.061,0.24c-0.04,0.07-0.199,0.25-0.22,0.33
	c-0.02,0.05-0.1,0.07-0.1,0.1c0,0.03,0.02,0.11,0.08,0.26c0.02,0.05,0.04,0.38,0.02,0.51c0,0.08,0,0.09,0.021,0.18
	c0,0.03-0.061,0.11-0.12,0.07c-0.04-0.04-0.101-0.03-0.101-0.02l0,0c-0.079,0.13-0.379,0.15-0.3,0.29
	c0.021,0.05,0.04,0.09,0.04,0.13c0.021,0.05,0.04,0.1,0.04,0.15c0,0.03,0.08,0.2,0.141,0.27c1.398,1.459,3.377,2.368,5.556,2.368
	C41.389,17.259,44.807,13.821,44.807,9.584z M36.013,4.697c0.04-0.02,0.06-0.03,0.1-0.04l0,0c0.04-0.02,0.08,0,0.1-0.02
	c0-0.02,0.021-0.05,0.04-0.08c0.021-0.01,0-0.03,0.021-0.04c0.02-0.01,0-0.03,0-0.04c0.02-0.04,0.02-0.04,0.04-0.04
	c0.02,0,0.02-0.01,0.02-0.02c0.04-0.03-0.06-0.13-0.1-0.12c-0.06,0.01-0.1,0.1-0.12,0.1c-0.02-0.01-0.04-0.01-0.06,0
	c0,0.02,0,0.03-0.021,0.04c0,0.01-0.02,0.03-0.04,0.04c0,0.01,0,0.02,0,0.03c0.021,0.01,0.021,0.01,0,0.05
	c-0.02,0.03-0.06,0.04-0.08,0.08c0,0.01,0,0.04,0,0.05C35.912,4.727,35.973,4.707,36.013,4.697z"/>
</svg>
