<?xml version="1.0" encoding="utf-8"?>
<!-- Generator: Adobe Illustrator 16.0.0, SVG Export Plug-In . SVG Version: 6.00 Build 0)  -->
<!DOCTYPE svg PUBLIC "-//W3C//DTD SVG 1.1//EN" "http://www.w3.org/Graphics/SVG/1.1/DTD/svg11.dtd">
<svg version="1.1" id="Layer_1" xmlns="http://www.w3.org/2000/svg" xmlns:xlink="http://www.w3.org/1999/xlink" x="0px" y="0px"
	 width="48px" height="48px" viewBox="0 0 48 48" enable-background="new 0 0 48 48" xml:space="preserve">
<path id="book-18-icon" fill="#FFFFFF" d="M37.95,30.151v2.425c-5.917,0.441-10.9,1.467-14.9,3.059V15.827
	c4.134-2.575,10.051-3.559,14.9-3.967v4.258l4.066-4.05V7.551c-8.017,0.242-15.866,1.534-21,4.733C15.867,9.085,8.033,7.793,0,7.551
	v28.9c6.9,0.208,13.65,1.191,18.667,3.491c1.5,0.675,3.2,0.675,4.684,0c5.017-2.3,11.784-3.283,18.667-3.491V26.043L37.95,30.151z
	 M18.967,35.635c-4.017-1.592-8.983-2.617-14.883-3.059V11.86c4.833,0.408,10.75,1.392,14.883,3.967V35.635z M30.384,29.393
	c-1.483,0.358-2.917,0.775-4.334,1.259v-2.384c1.567-0.508,3.134-0.941,4.768-1.3L30.384,29.393z M32.967,24.31l-0.95,4.666
	l4.733-0.874L32.967,24.31z M44.2,13.077l3.8,3.792L37.85,27.01l-3.782-3.792L44.2,13.077z"/>
</svg>
