<?xml version="1.0" encoding="utf-8"?>
<!-- Generator: Adobe Illustrator 16.0.0, SVG Export Plug-In . SVG Version: 6.00 Build 0)  -->
<!DOCTYPE svg PUBLIC "-//W3C//DTD SVG 1.1//EN" "http://www.w3.org/Graphics/SVG/1.1/DTD/svg11.dtd">
<svg version="1.1" id="Layer_1" xmlns="http://www.w3.org/2000/svg" xmlns:xlink="http://www.w3.org/1999/xlink" x="0px" y="0px"
	 width="48px" height="48px" viewBox="0 0 48 48" enable-background="new 0 0 48 48" xml:space="preserve">
<path id="note-29-icon_1_" fill="#FFFFFF" d="M34.289,31.426H13.651v-3.092h20.638V31.426z M34.289,24.681H13.651v-3.103h20.638
	V24.681z M33.828,0c-3.562,0-6.426,2.872-6.426,6.426c0,1.411,0.461,2.702,1.222,3.763l-7.066,7.056h4.625l4.983-4.974
	c0.82,0.37,1.701,0.58,2.662,0.58c3.563,0,6.425-2.882,6.425-6.425C40.253,2.872,37.392,0,33.828,0z M33.828,5.034
	c-1.121,0-2.002-0.63-2.002-1.401c0-0.78,0.881-1.411,2.002-1.411s2.001,0.631,2.001,1.411C35.829,4.404,34.949,5.034,33.828,5.034z
	 M38.833,14.993c0,5.994,0,14.842,0,16.983c0,6.576-8.127,3.933-8.127,3.933s2.502,7.928-3.644,7.928c-3.323,0-5.564,0-17.895,0
	V9.258H24.3c-0.38-1.321-0.5-2.722-0.32-4.164H5.004V48h22.139c7.086,0,15.854-9.268,15.854-15.673V10.219
	C42.155,12.221,40.693,13.901,38.833,14.993z"/>
</svg>
