<?xml version="1.0" encoding="utf-8"?>
<!-- Generator: Adobe Illustrator 16.0.0, SVG Export Plug-In . SVG Version: 6.00 Build 0)  -->
<!DOCTYPE svg PUBLIC "-//W3C//DTD SVG 1.1//EN" "http://www.w3.org/Graphics/SVG/1.1/DTD/svg11.dtd">
<svg version="1.1" id="Layer_1" xmlns="http://www.w3.org/2000/svg" xmlns:xlink="http://www.w3.org/1999/xlink" x="0px" y="0px"
	 width="48px" height="48px" viewBox="0 0 48 48" enable-background="new 0 0 48 48" xml:space="preserve">
<path id="crosshair-9-icon" fill="#FFFFFF" d="M24,0C13.153,0,4.368,8.795,4.368,19.632C4.368,30.639,13.914,37.903,24,48
	c10.086-10.097,19.632-17.361,19.632-28.368C43.632,8.795,34.847,0,24,0z M26.321,33.251v-6.624h-4.662v6.624
	c-6.084-0.991-10.887-5.794-11.868-11.868h6.624V16.72H9.771c0.98-6.094,5.804-10.917,11.888-11.897v6.654h4.662V4.823
	c6.084,0.98,10.907,5.804,11.888,11.897h-6.645v4.663h6.645C37.208,27.457,32.405,32.26,26.321,33.251z"/>
</svg>
