<?xml version="1.0" encoding="utf-8"?>
<!-- Generator: Adobe Illustrator 16.0.0, SVG Export Plug-In . SVG Version: 6.00 Build 0)  -->
<!DOCTYPE svg PUBLIC "-//W3C//DTD SVG 1.1//EN" "http://www.w3.org/Graphics/SVG/1.1/DTD/svg11.dtd">
<svg version="1.1" id="Layer_1" xmlns="http://www.w3.org/2000/svg" xmlns:xlink="http://www.w3.org/1999/xlink" x="0px" y="0px"
	 width="48px" height="48px" viewBox="0 0 48 48" enable-background="new 0 0 48 48" xml:space="preserve">
<g>
	<path fill="#FFFFFF" d="M31.45,27.353C41.655,9.871,33.972,0.045,23.985,0.045c-10.146,0-16.91,9.876-7.444,27.308
		c3.182,5.884-3.462,7.265-10.187,8.815c-6.884,1.59-6.344,5.213-6.344,11.787h29.798c-2.161-2.302-3.482-5.404-3.482-8.807
		C26.326,35.247,28.969,31.595,31.45,27.353z"/>
	<path fill="#FFFFFF" d="M39.194,30.354c-4.843,0-8.785,3.942-8.785,8.794c0,4.854,3.942,8.796,8.785,8.796
		c4.863,0,8.806-3.942,8.806-8.796C48,34.297,44.058,30.354,39.194,30.354z M38.994,44.112c-1.26,0.45-2.301-0.061-2.101-1.271
		c0.22-1.222,1.42-3.812,1.58-4.313c0.18-0.49-0.141-0.62-0.5-0.42c-0.2,0.11-0.5,0.351-0.76,0.58c-0.08-0.15-0.181-0.31-0.261-0.47
		c0.44-0.42,1.141-0.99,1.98-1.2c0.98-0.24,2.662,0.15,1.941,2.061c-0.5,1.36-0.881,2.291-1.101,2.992
		c-0.24,0.7,0.04,0.84,0.44,0.58c0.32-0.221,0.641-0.511,0.881-0.73c0.12,0.18,0.159,0.24,0.26,0.45
		C40.936,42.802,39.834,43.822,38.994,44.112z M41.615,35.708c-0.58,0.49-1.421,0.48-1.901-0.021c-0.46-0.5-0.399-1.301,0.181-1.801
		c0.58-0.48,1.421-0.471,1.901,0.03C42.276,34.417,42.196,35.218,41.615,35.708z"/>
</g>
</svg>
