<?xml version="1.0" encoding="utf-8"?>
<!-- Generator: Adobe Illustrator 16.0.0, SVG Export Plug-In . SVG Version: 6.00 Build 0)  -->
<!DOCTYPE svg PUBLIC "-//W3C//DTD SVG 1.1//EN" "http://www.w3.org/Graphics/SVG/1.1/DTD/svg11.dtd">
<svg version="1.1" id="Layer_1" xmlns="http://www.w3.org/2000/svg" xmlns:xlink="http://www.w3.org/1999/xlink" x="0px" y="0px"
	 width="48px" height="48px" viewBox="0 0 48 48" enable-background="new 0 0 48 48" xml:space="preserve">
<path id="headphones-5-icon" fill="#FFFFFF" d="M44.396,48H3.603c0-5.585-0.44-8.667,5.404-10.028
	c5.725-1.321,11.37-2.502,8.647-7.486C9.608,15.673,15.373,7.266,24,7.266c8.467,0,14.372,8.086,6.345,23.219
	c-2.622,4.964,2.823,6.146,8.668,7.486C44.857,39.333,44.396,42.415,44.396,48z M36.17,19.556c-0.14,1.361-0.42,2.802-0.82,4.264
	h2.542c1.441,0,2.622-1.161,2.622-2.622v-6.505c0-1.461-1.181-2.643-2.622-2.643h-2.723C36.09,14.212,36.431,16.714,36.17,19.556z
	 M23.98,3.843c4.484-0.02,8.748,2.202,10.569,6.185h2.241C35.169,4.164,30.365,0,23.98,0C17.575,0,12.75,4.164,11.149,10.028h2.242
	C15.212,6.045,19.476,3.823,23.98,3.843z M7.426,21.198c0,1.461,1.181,2.622,2.623,2.622h2.562c-0.4-1.421-0.661-2.822-0.801-4.144
	c-0.28-2.882,0.06-5.424,1.021-7.626h-2.782c-1.441,0-2.623,1.181-2.623,2.643V21.198L7.426,21.198z"/>
</svg>
