<?xml version="1.0" encoding="utf-8"?>
<!-- Generator: Adobe Illustrator 16.0.0, SVG Export Plug-In . SVG Version: 6.00 Build 0)  -->
<!DOCTYPE svg PUBLIC "-//W3C//DTD SVG 1.1//EN" "http://www.w3.org/Graphics/SVG/1.1/DTD/svg11.dtd">
<svg version="1.1" id="Layer_1" xmlns="http://www.w3.org/2000/svg" xmlns:xlink="http://www.w3.org/1999/xlink" x="0px" y="0px"
	 width="48px" height="48px" viewBox="0 0 48 48" enable-background="new 0 0 48 48" xml:space="preserve">
<path id="note-14-icon_1_" fill="#FFFFFF" d="M35.31,29.444H19.276v-3.503H35.31V29.444L35.31,29.444z M35.31,21.818H19.276v-3.483
	h16.013v3.483H35.31z M35.31,14.212H19.276v-3.503h16.013v3.503H35.31z M7.727,43.336V4.644h32.547c0,0,0,21.738,0,25.421
	c0,7.366-9.088,4.403-9.088,4.403s2.783,8.867-4.083,8.867C23.379,43.336,21.518,43.336,7.727,43.336z M44.938,30.466V0H3.062v48
	h24.12C35.129,48,44.938,37.632,44.938,30.466z M14.352,10.449c-1.121,0-2.022,0.901-2.022,2.001c0,1.121,0.901,2.042,2.022,2.042
	c1.101,0,2.021-0.921,2.021-2.042C16.374,11.35,15.453,10.449,14.352,10.449z M14.352,18.135c-1.121,0-2.022,0.9-2.022,2.001
	c0,1.121,0.901,2.042,2.022,2.042c1.101,0,2.021-0.921,2.021-2.042C16.374,19.036,15.453,18.135,14.352,18.135z M14.352,25.661
	c-1.121,0-2.022,0.901-2.022,2.022c0,1.101,0.901,2.021,2.022,2.021c1.101,0,2.021-0.921,2.021-2.021
	C16.374,26.562,15.453,25.661,14.352,25.661z"/>
</svg>
