<?xml version="1.0" encoding="utf-8"?>
<!-- Generator: Adobe Illustrator 16.0.0, SVG Export Plug-In . SVG Version: 6.00 Build 0)  -->
<!DOCTYPE svg PUBLIC "-//W3C//DTD SVG 1.1//EN" "http://www.w3.org/Graphics/SVG/1.1/DTD/svg11.dtd">
<svg version="1.1" id="Layer_1" xmlns="http://www.w3.org/2000/svg" xmlns:xlink="http://www.w3.org/1999/xlink" x="0px" y="0px"
	 width="48px" height="48px" viewBox="0 0 48 48" enable-background="new 0 0 48 48" xml:space="preserve">
<path id="sms-3-icon" fill="#FFFFFF" d="M14.452,35.465L14.452,35.465c-3.042,1.861-9.688,3.744-14.373,4.594
	c1.762-3.463,3.684-8.217,3.604-11.529C1.321,25.697,0,22.054,0,18.34C0,7.872,10.168,0.215,21.578,0.215
	c11.329,0,21.578,7.597,21.578,18.125c0,0.15,0,0.3,0,0.45c-1.321-0.71-2.742-1.291-4.283-1.711
	c-0.802-7.096-8.248-12.67-17.295-12.67c-9.568,0-17.375,6.245-17.375,13.931c0,4.043,1.761,6.585,4.203,9.097
	c-0.48,3.725-1.701,6.967-1.701,6.967s3.563-0.941,7.606-3.293C14.132,32.582,14.192,34.033,14.452,35.465z M47.939,47.785
	c-3.222-0.561-7.806-1.881-9.868-3.162c-11.449,2.801-19.776-4.234-19.776-11.771c0-7.244,7.066-12.469,14.852-12.469
	C40.994,20.382,48,25.646,48,32.852c0,2.553-0.921,5.064-2.522,7.008C45.397,42.141,46.739,45.424,47.939,47.785z"/>
</svg>
