<?xml version="1.0" encoding="utf-8"?>
<!-- Generator: Adobe Illustrator 16.0.0, SVG Export Plug-In . SVG Version: 6.00 Build 0)  -->
<!DOCTYPE svg PUBLIC "-//W3C//DTD SVG 1.1//EN" "http://www.w3.org/Graphics/SVG/1.1/DTD/svg11.dtd">
<svg version="1.1" id="Layer_1" xmlns="http://www.w3.org/2000/svg" xmlns:xlink="http://www.w3.org/1999/xlink" x="0px" y="0px"
	 width="48px" height="48px" viewBox="0 0 48 48" enable-background="new 0 0 48 48" xml:space="preserve">
<path id="book-13-icon" fill="#FFFFFF" d="M8.607,8.447c-2.742,0-2.742-4.023,0-4.023c1.981,0,37.751,0,37.751,0V0H7.446
	C4.243,0,1.642,2.612,1.642,5.825v36.351C1.642,45.398,4.243,48,7.446,48h38.912V8.447C45.798,8.447,10.85,8.447,8.607,8.447z
	 M41.715,43.337H12.29V13.171h29.425V43.337z M28.304,18.625c1.121-0.961,2.803-0.941,3.724,0.05c0.94,0.981,0.78,2.553-0.36,3.513
	c-1.121,0.961-2.783,0.941-3.724-0.05C27.022,21.158,27.183,19.586,28.304,18.625z M22.419,36.21c0.4-2.392,2.762-7.496,3.103-8.467
	c0.34-0.961-0.301-1.231-1.001-0.841c-0.4,0.23-0.98,0.691-1.501,1.141c-0.141-0.279-0.34-0.609-0.48-0.92
	c0.82-0.832,2.202-1.942,3.843-2.342c1.962-0.491,5.245,0.29,3.844,4.033c-1.002,2.673-1.723,4.515-2.162,5.896
	c-0.461,1.371,0.08,1.661,0.86,1.121c0.621-0.41,1.262-0.991,1.742-1.432c0.22,0.36,0.28,0.48,0.521,0.891
	c-0.841,0.851-3.003,2.843-4.645,3.433C24.061,39.593,21.999,38.592,22.419,36.21z"/>
</svg>
