<?xml version="1.0" encoding="utf-8"?>
<!-- Generator: Adobe Illustrator 16.0.0, SVG Export Plug-In . SVG Version: 6.00 Build 0)  -->
<!DOCTYPE svg PUBLIC "-//W3C//DTD SVG 1.1//EN" "http://www.w3.org/Graphics/SVG/1.1/DTD/svg11.dtd">
<svg version="1.1" id="Layer_1" xmlns="http://www.w3.org/2000/svg" xmlns:xlink="http://www.w3.org/1999/xlink" x="0px" y="0px"
	 width="48px" height="48px" viewBox="0 0 48 48" enable-background="new 0 0 48 48" xml:space="preserve">
<path id="help-icon" fill="#FFFFFF" d="M24.4,48c-2.882,0-5.245-2.352-5.245-5.244c0-2.902,2.362-5.244,5.245-5.244
	c2.883,0,5.244,2.342,5.244,5.244C29.645,45.648,27.283,48,24.4,48z M28.523,32.497v0.94c0,0-7.866,0-8.647,0v-0.94
	c0-2.673,0.4-6.104,3.483-9.078c3.103-2.982,6.986-5.444,6.986-9.167c0-4.113-2.863-6.285-6.466-6.285
	c-6.005,0-6.385,6.215-6.525,7.596H8.947C9.147,9.067,11.91,0,23.94,0c10.428,0,15.113,6.986,15.113,13.531
	C39.053,23.96,28.523,25.771,28.523,32.497z"/>
</svg>
