<?xml version="1.0" encoding="utf-8"?>
<!-- Generator: Adobe Illustrator 16.0.0, SVG Export Plug-In . SVG Version: 6.00 Build 0)  -->
<!DOCTYPE svg PUBLIC "-//W3C//DTD SVG 1.1//EN" "http://www.w3.org/Graphics/SVG/1.1/DTD/svg11.dtd">
<svg version="1.1" id="Layer_1" xmlns="http://www.w3.org/2000/svg" xmlns:xlink="http://www.w3.org/1999/xlink" x="0px" y="0px"
	 width="24px" height="24px" viewBox="0 0 24 24" enable-background="new 0 0 24 24" xml:space="preserve">
<path id="magnifier-6-icon" d="M23.911,20.88l-6.354-6.354c0.93-1.464,1.469-3.199,1.469-5.058C19.025,4.248,14.778,0,9.557,0
	C4.336,0,0.089,4.248,0.089,9.469s4.247,9.467,9.468,9.467c1.767,0,3.423-0.486,4.839-1.332L20.79,24L23.911,20.88z M2.697,9.469
	c0-3.782,3.078-6.859,6.859-6.859c3.783,0,6.858,3.077,6.858,6.859c0,3.781-3.075,6.858-6.858,6.858
	C5.775,16.327,2.697,13.25,2.697,9.469z M13.529,10.596H10.75v2.78H8.604v-2.78H5.822V8.448h2.781v-2.78h2.146v2.78h2.779V10.596z"
	/>
</svg>
