<?xml version="1.0" encoding="utf-8"?>
<!-- Generator: Adobe Illustrator 16.0.0, SVG Export Plug-In . SVG Version: 6.00 Build 0)  -->
<!DOCTYPE svg PUBLIC "-//W3C//DTD SVG 1.1//EN" "http://www.w3.org/Graphics/SVG/1.1/DTD/svg11.dtd">
<svg version="1.1" id="Layer_1" xmlns="http://www.w3.org/2000/svg" xmlns:xlink="http://www.w3.org/1999/xlink" x="0px" y="0px"
	 width="24px" height="24px" viewBox="0 0 24 24" enable-background="new 0 0 24 24" xml:space="preserve">
<path id="info-6-icon" d="M12,2.33c5.344,0,9.67,4.325,9.67,9.67c0,5.344-4.325,9.67-9.67,9.67c-5.344,0-9.67-4.325-9.67-9.67
	C2.33,6.656,6.655,2.33,12,2.33 M12,0C5.373,0,0,5.373,0,12c0,6.627,5.373,12,12,12c6.627,0,12-5.373,12-12C24,5.373,18.627,0,12,0
	L12,0z M11.8,18.746c-1.643,0.577-2.998-0.085-2.726-1.663s1.831-4.958,2.054-5.597c0.222-0.639-0.204-0.814-0.661-0.554
	c-0.263,0.152-0.655,0.457-0.991,0.753c-0.093-0.188-0.225-0.402-0.323-0.608c0.548-0.55,1.466-1.287,2.551-1.554
	c1.297-0.32,3.465,0.192,2.534,2.671c-0.665,1.768-1.136,2.987-1.433,3.896c-0.296,0.908,0.056,1.099,0.574,0.745
	c0.405-0.277,0.838-0.653,1.154-0.945c0.146,0.238,0.193,0.313,0.338,0.587C14.322,17.04,12.885,18.358,11.8,18.746z M15.205,7.813
	c-0.746,0.635-1.851,0.621-2.469-0.031c-0.618-0.651-0.515-1.694,0.23-2.328c0.745-0.635,1.851-0.621,2.469,0.03
	C16.053,6.136,15.95,7.179,15.205,7.813z"/>
</svg>
